{"title":"Management.2008.DVDRiP.XViD.OPTIONAL.NORDIC-Zen_Bud","uid":5870745,"size":749289152,"categoryP":"video","categoryS":"movies","magnet":"?xt=urn:btih:b0abe2a8147f36fa43c09e4f61b61ecb5939f02f&amp;dn=+Management.2008.DVDRiP.XViD.OPTIONAL.NORDIC-Zen_Bud&amp;tr=udp%3A%2F%2Ftracker.openbittorrent.com%3A80&amp;tr=udp%3A%2F%2Fopen.demonii.com%3A1337&amp;tr=udp%3A%2F%2Ftracker.coppersurfer.tk%3A6969&amp;tr=udp%3A%2F%2Fexodus.desync.com%3A6969","seeders":0,"leechers":1,"uploader":"Zen_Bud","files":-1,"time":1286440478,"description":"\n****** Management.2008.DVDRiP.XViD.OPTIONAL.NORDIC-Zen_Bud ******\n\nFormat                           : AVI\nFile size                        : 700 MiB\nDuration                         : 1h 29mn\nOverall bit rate                 : 1 092 Kbps\nWriting application              : VirtualDubMod 1.5.4.1 (build 2178/release)\nWriting library                  : VirtualDubMod build 2178/release\n\nVideo\n\nFormat                           : MPEG-4 Visual\nCodec ID/Hint                    : XviD\nDuration                         : 1h 29mn\nBit rate                         : 956 Kbps\nWidth                            : 672 pixels\nHeight                           : 368 pixels\nDisplay aspect ratio             : 16:9\nStream size                      : 614 MiB (88%)\nWriting library                  : XviD 1.2.1 (UTC 2008-12-04)\n\nAudio\n\nFormat                           : MPEG Audio\nCodec ID/Hint                    : MP3\nDuration                         : 1h 29mn\nBit rate                         : 128 Kbps\nChannel(s)                       : 2 channels\nSampling rate                    : 48.0 KHz\nStream size                      : 82.1 MiB (12%)\nWriting library                  : LAME3.98r\nLanguage                         : English\n\nText #1\nLanguage                         : Danish\n\nText #2\nLanguage                         : Finnish\n\nText #3\nLanguage                         : Norwegian\n\nText #4\nLanguage                         : Swedish\n","torrent":{"xt":"urn:btih:b0abe2a8147f36fa43c09e4f61b61ecb5939f02f","amp;dn":"+Management.2008.DVDRiP.XViD.OPTIONAL.NORDIC-Zen_Bud","amp;tr":["udp%3A%2F%2Ftracker.openbittorrent.com%3A80","udp%3A%2F%2Fopen.demonii.com%3A1337","udp%3A%2F%2Ftracker.coppersurfer.tk%3A6969","udp%3A%2F%2Fexodus.desync.com%3A6969"],"infoHash":"b0abe2a8147f36fa43c09e4f61b61ecb5939f02f","infoHashBuffer":{"type":"Buffer","data":[176,171,226,168,20,127,54,250,67,192,158,79,97,182,30,203,89,57,240,47]},"announce":[],"urlList":[]}}